<svg xmlns="http://www.w3.org/2000/svg" viewBox="0 0 90.09 84.34"><defs><style>.cls-1{fill:#fff;}.cls-2{fill:#5baa91;}.cls-3{fill:#dbebf6;}.cls-4{fill:#f8ed2f;}.cls-5{fill:#67b8e4;}</style></defs><g id="Layer_2" data-name="Layer 2"><g id="Layer_1-2" data-name="Layer 1"><path class="cls-1" d="M18.39,31.91A32.12,32.12,0,0,1,19,18.79C21.51,9.61,30.63,1.42,40.06.26,42,0,43.9.08,45.83,0c-.77,1-1.55,2-2.29,3-4.78,6.68-7.23,14.05-5.35,22.21C39,28.81,41,32.11,42.5,35.53a6.16,6.16,0,0,1-1.13-.44,24.6,24.6,0,0,0-14.21-3.87C24.23,31.35,21.31,31.67,18.39,31.91Z"/><path class="cls-1" d="M70.83,32.36c10.08,2.82,18,11.76,19.08,22.26.55,5.64,0,11.35-3.5,16.29a94.21,94.21,0,0,0-4.53-8.41c-3.91-5.85-9.18-10-16.3-11-3.3-.48-6.71-.19-10.07-.24.76-.45,1.53-.88,2.28-1.33C64.56,45.84,68.65,39.81,70.83,32.36Z"/><path class="cls-1" d="M86.17,71.31a20,20,0,0,1-7,7.9,26.51,26.51,0,0,1-33.86-2.13,14.79,14.79,0,0,1,1-1.46c2.8-3.29,5.43-6.74,6.35-11,.68-3.21.79-6.55,1.15-9.82.7,1.26,1.38,2.53,2.1,3.77,3.88,6.72,9.42,11.18,17.14,12.8C77.45,72.28,81.8,71.91,86.17,71.31Z"/><path class="cls-1" d="M4.22,72A21.9,21.9,0,0,1,.27,61.78,26.42,26.42,0,0,1,18.35,32.55a21.39,21.39,0,0,1,.9,2c1.45,4.13,3.49,8,6.89,10.73,2.74,2.21,6,3.79,9,5.65-3.33.12-6.68,0-10,.4A23.53,23.53,0,0,0,4.22,72Z"/><path class="cls-1" d="M44.94,77.08a26.34,26.34,0,0,1-19.53,7.23C16.8,83.87,10,80,4.81,73.08a4.58,4.58,0,0,1-.44-1c4.51-.16,9.08.07,13.52-.57a21.64,21.64,0,0,0,15.28-9.16,65.41,65.41,0,0,0,3.35-6.17c.22,4.12.73,8.22,2.74,11.88C41,71.18,43,74.09,44.94,77.08Z"/><path class="cls-1" d="M46.61,0A19.83,19.83,0,0,1,56.82,2.62,26,26,0,0,1,71,20.67a21.48,21.48,0,0,1-.15,11.25,11.28,11.28,0,0,1-2.18-.08c-7-1.62-13.39-.27-19.46,3.32a5.79,5.79,0,0,1-1.34.4c.37-.62.73-1.25,1.12-1.86,5.11-7.91,6.3-16.27,2.54-25A89,89,0,0,0,46.61,0Z"/><path class="cls-2" d="M36.52,56.2a65.41,65.41,0,0,1-3.35,6.17,21.64,21.64,0,0,1-15.28,9.16c-4.44.64-9,.41-13.52.57A.44.44,0,0,1,4.22,72a23.53,23.53,0,0,1,20.94-20.7c3.29-.38,6.64-.28,10-.4h0l1.12.28,1.19.34h0Z"/><path class="cls-2" d="M86.17,71.31c-4.37.6-8.72,1-13.13,0-7.72-1.62-13.26-6.08-17.14-12.8-.72-1.24-1.4-2.51-2.1-3.77-.3-1-.6-1.94-.89-2.91h0l2.6-.66c3.36,0,6.77-.24,10.07.24,7.12,1,12.39,5.2,16.3,11a94.21,94.21,0,0,1,4.53,8.41Z"/><path class="cls-2" d="M46.61,0a89,89,0,0,1,4.88,8.65c3.76,8.75,2.57,17.11-2.54,25-.39.61-.75,1.24-1.12,1.86-.93,1-1.85,1.93-2.77,2.9l-.08,0-2.48-2.9C41,32.11,39,28.81,38.19,25.24,36.31,17.08,38.76,9.71,43.54,3c.74-1,1.52-2,2.29-3Z"/><path class="cls-3" d="M42.5,35.53,45,38.42a26.7,26.7,0,0,0-7.57,13.07l-1.19-.34-1.12-.28h0c-3-1.86-6.25-3.44-9-5.65-3.4-2.75-5.44-6.6-6.89-10.73a21.39,21.39,0,0,0-.9-2c0-.21,0-.43,0-.64,2.92-.24,5.84-.56,8.77-.69a24.6,24.6,0,0,1,14.21,3.87A6.16,6.16,0,0,0,42.5,35.53Z"/><path class="cls-3" d="M45.06,38.46c.92-1,1.84-1.94,2.77-2.9a5.79,5.79,0,0,0,1.34-.4c6.07-3.59,12.5-4.94,19.46-3.32a11.28,11.28,0,0,0,2.18.08c0,.15,0,.3,0,.44-2.18,7.45-6.27,13.48-13,17.52-.75.45-1.52.88-2.28,1.33l-2.6.66A31.44,31.44,0,0,0,45.06,38.46Z"/><path class="cls-3" d="M52.91,51.87c.29,1,.59,1.94.89,2.91-.36,3.27-.47,6.61-1.15,9.82-.92,4.28-3.55,7.73-6.35,11a14.79,14.79,0,0,0-1,1.46h-.39c-1.91-3-4-5.9-5.68-9-2-3.66-2.52-7.76-2.74-11.88.29-1.57.59-3.14.88-4.7C42.52,53.66,47.71,53,52.91,51.87Z"/><path class="cls-4" d="M52.91,51.87C47.71,53,42.52,53.66,37.4,51.5h0A26.7,26.7,0,0,1,45,38.42l.08,0a31.44,31.44,0,0,1,7.85,13.41Z"/><path class="cls-5" d="M35.1,50.87l1.12.28Z"/></g></g></svg>